<?xml version="1.0" encoding="utf-8"?>
<!-- Generator: Adobe Illustrator 28.1.0, SVG Export Plug-In . SVG Version: 6.00 Build 0)  -->
<svg version="1.1" id="Layer_1" xmlns="http://www.w3.org/2000/svg" xmlns:xlink="http://www.w3.org/1999/xlink" x="0px" y="0px"
	 viewBox="0 0 226 59" style="enable-background:new 0 0 226 59;" xml:space="preserve">
<style type="text/css">
	.st0{clip-path:url(#SVGID_00000148631890642590913680000007263974665651458955_);}
	.st1{fill:#619E90;}
	.st2{fill:#FFFFFF;}
</style>
<g>
	<defs>
		<rect id="SVGID_1_" x="2.9" y="5" width="52.3" height="48.7"/>
	</defs>
	<clipPath id="SVGID_00000080186316938135836020000009991417852156114845_">
		<use xlink:href="#SVGID_1_"  style="overflow:visible;"/>
	</clipPath>
	<g style="clip-path:url(#SVGID_00000080186316938135836020000009991417852156114845_);">
		<path class="st1" d="M29,52.7c-2.9,0-5.7-1.2-7.8-3.2l-15.1-15c-0.3-0.3-0.5-0.5-0.7-0.8c-0.5-0.6-1-1.4-1.4-2.1
			C3.3,30,3,28.3,3,26.6C3,23.8,4,21,6.2,18.8c4.3-4.3,11.3-4.3,15.6,0l7.2,7.2l7.2-7.2c4.3-4.3,11.3-4.3,15.6,0
			c3.4,3.4,4.1,8.6,2.1,12.7c-0.4,0.8-0.8,1.5-1.4,2.1c-0.2,0.3-0.5,0.5-0.7,0.8L51.3,35L36.9,49.5C34.8,51.6,32,52.7,29,52.7z"/>
		<path class="st2" d="M18.9,53.6c1-3.7,1.8-21.1-1.5-27.4c-2.5-4.7-5.1-9.4-6.7-14.5c-0.5-1.7-1.4-4-0.5-5.8
			c1.1-2.2,2.8,0.2,3.8,1.5c3.6,4.3,6.8,10.8,12.7,12.4c5.3,1.5,8.2-2.1,13.4-5c1.5-0.9,6-4.5,8-2c1.7,2.3-4.5,6.3-6.6,9.7
			c-1.4,2.3-2.6,5-3.2,7c-2.3,8.9,1.9,15,3.1,23.7"/>
		<path class="st2" d="M33.5,11.9c0,3.4-2.8,6.2-6.2,6.2c-3.4,0-6.1-2.7-6.1-6.2c0-3.4,2.7-6.1,6.1-6.1C30.8,5.8,33.5,8.5,33.5,11.9
			z"/>
		<path class="st1" d="M30,24c0,1.4-1.1,2.5-2.5,2.5c-1.4,0-2.5-1.1-2.5-2.5c0-1.4,1.1-2.5,2.5-2.5C28.9,21.6,30,22.7,30,24z"/>
		<path class="st1" d="M29.8,31.6c0,1.2-1,2.2-2.2,2.2c-1.2,0-2.2-1-2.2-2.2c0-1.2,1-2.2,2.2-2.2C28.8,29.4,29.8,30.4,29.8,31.6z"/>
		<path class="st1" d="M29.5,38.7c0,1.1-0.9,1.9-1.9,1.9c-1.1,0-1.9-0.9-1.9-1.9c0-1.1,0.9-1.9,1.9-1.9
			C28.6,36.7,29.5,37.6,29.5,38.7z"/>
		<path class="st1" d="M30.1,45.1c0,0.9-0.7,1.6-1.6,1.6c-0.9,0-1.6-0.7-1.6-1.6c0-0.9,0.7-1.6,1.6-1.6
			C29.4,43.5,30.1,44.2,30.1,45.1z"/>
		<path class="st1" d="M32.1,50.4c0,0.8-0.6,1.4-1.4,1.4c-0.8,0-1.4-0.6-1.4-1.4c0-0.8,0.6-1.4,1.4-1.4
			C31.4,48.9,32.1,49.6,32.1,50.4z"/>
	</g>
</g>
<g>
	<path class="st2" d="M66,16.5h6.1c1.9,0,3.2,0.6,4,1.8c0.8,1.2,1.2,3,1.2,5.3s-0.4,4-1.1,5.2s-2,1.8-3.8,1.8h-1.9v9.2h-4.6V16.5H66
		z M70.8,26.3c0.6,0,1-0.1,1.2-0.3c0.3-0.2,0.4-0.5,0.5-0.9s0.1-0.9,0.1-1.7c0-1-0.1-1.7-0.3-2.1c-0.2-0.4-0.6-0.6-1.3-0.6h-0.5v5.6
		H70.8z"/>
	<path class="st2" d="M78.7,16.4h4.9v5.5c0.5-1.4,1.5-2.2,2.9-2.2c1.3,0,2.3,0.4,3,1.3c0.7,0.8,1,2,1,3.5v15.3h-4.7v-15
		c0-0.4-0.1-0.8-0.3-1.1c-0.2-0.3-0.5-0.4-0.9-0.4c-0.3,0-0.6,0.1-0.8,0.4c-0.2,0.3-0.3,0.6-0.3,1v15h-4.9V16.4H78.7z"/>
	<path class="st2" d="M92,40h2.3c0.3,0,0.5-0.1,0.5-0.4c0-0.1,0-0.2,0-0.3l-3.1-19.4h4.4l0.9,9.7l0.4,4.9l0.5-4.9L99,20h4.5
		l-3.7,20.8c-0.1,0.8-0.4,1.3-0.8,1.7S98,43,97.2,43h-5.3v-3H92z"/>
	<path class="st2" d="M104.4,34v-1.6h4.7v2.3c0,0.5,0.1,0.8,0.3,1.1c0.2,0.2,0.5,0.4,0.9,0.4c0.6,0,0.9-0.5,0.9-1.5
		c0-0.8-0.1-1.4-0.4-1.8c-0.3-0.4-0.8-0.9-1.4-1.4l-2.5-1.9c-0.9-0.7-1.5-1.4-1.9-2.1s-0.6-1.7-0.6-3c0-1,0.3-1.9,0.8-2.6
		s1.2-1.2,2.1-1.6s1.9-0.5,2.9-0.5c3.8,0,5.8,1.9,5.8,5.7v0.4h-4.9v-0.8c0-0.5-0.1-0.9-0.2-1.2c-0.2-0.3-0.4-0.5-0.8-0.5
		c-0.3,0-0.6,0.1-0.7,0.3c-0.2,0.2-0.3,0.4-0.3,0.8c0,0.7,0.3,1.3,0.8,1.7l2.9,2.1c1,0.8,1.8,1.6,2.4,2.5s0.8,2.1,0.8,3.4
		c0,1.8-0.5,3.3-1.6,4.2c-1,1-2.5,1.5-4.4,1.5C106.3,40,104.4,38,104.4,34z"/>
	<path class="st2" d="M117.6,18.6v-3.3h4.7v3.3H117.6z M117.6,39.8V19.9h4.7v19.8C122.3,39.7,117.6,39.7,117.6,39.8z"/>
	<path class="st2" d="M124.1,33.8v-8c0-1.9,0.5-3.4,1.6-4.5s2.5-1.7,4.3-1.7s3.3,0.6,4.3,1.7c1.1,1.1,1.6,2.6,1.6,4.5v8
		c0,4.1-2,6.1-5.9,6.1C126.1,39.9,124.1,38,124.1,33.8z M130.8,36c0.2-0.3,0.3-0.6,0.3-1.1v-9.7c0-1.2-0.4-1.7-1.1-1.7
		c-0.7,0-1.1,0.6-1.1,1.7v9.7c0,0.5,0.1,0.8,0.3,1.1c0.2,0.3,0.5,0.4,0.8,0.4C130.4,36.3,130.6,36.2,130.8,36z"/>
	<path class="st1" d="M139.2,39.2c-0.5-0.5-0.7-1.4-0.7-2.5V24.3h-1.3v-3.6h1.3v-4.2h4.6v4.2h1.4v3.6h-1.4v11.1c0,0.3,0,0.6,0.1,0.8
		s0.2,0.2,0.4,0.2c0.2,0,0.4,0,0.5,0c0.2,0,0.3,0,0.3,0v3.2c-0.3,0.1-0.7,0.1-1.2,0.2c-0.5,0.1-1,0.1-1.5,0.1
		C140.5,40,139.7,39.8,139.2,39.2z"/>
	<path class="st1" d="M145.9,16.4h4.9v5.5c0.5-1.4,1.5-2.2,2.9-2.2c1.3,0,2.3,0.4,3,1.3c0.7,0.8,1,2,1,3.5v15.3H153v-15
		c0-0.4-0.1-0.8-0.3-1.1c-0.2-0.3-0.5-0.4-0.9-0.4c-0.3,0-0.6,0.1-0.8,0.4c-0.2,0.3-0.3,0.6-0.3,1v15h-4.9V16.4H145.9z"/>
	<path class="st1" d="M160.8,38.3c-0.9-1.1-1.3-2.8-1.3-5v-8c0-1.8,0.5-3.2,1.6-4.2c1-1,2.5-1.4,4.4-1.4c3.8,0,5.7,1.9,5.7,5.6v1.4
		c0,1.4,0,2.6-0.1,3.5h-6.9V34c0,0.7,0.1,1.2,0.2,1.6c0.1,0.4,0.5,0.6,0.9,0.6s0.6-0.1,0.8-0.3c0.2-0.2,0.2-0.5,0.3-0.7
		c0-0.3,0-0.7,0-1.2v-1.9h4.7v1.1c0,2.3-0.4,4-1.3,5.1c-0.9,1.1-2.4,1.6-4.6,1.6C163.1,40,161.6,39.5,160.8,38.3z M166.4,27.9v-2.5
		c0-1.4-0.4-2.1-1.1-2.1c-0.8,0-1.2,0.7-1.2,2.1v2.5H166.4z"/>
	<path class="st1" d="M172.8,19.9h4.7v2.2c0.2-0.8,0.6-1.4,1.2-1.8s1.3-0.6,2.2-0.6v3.9c-0.7,0-1.4,0.1-2.2,0.3
		c-0.8,0.2-1.2,0.4-1.2,0.7v15.2h-4.7V19.9z"/>
	<path class="st1" d="M182.5,38.5c-0.6-1-0.9-2.5-0.9-4.4c0-1.6,0.2-2.7,0.6-3.6c0.4-0.8,1-1.4,1.7-1.8c0.7-0.4,1.8-0.8,3.3-1.3
		l1.3-0.4v-0.1v-2c0-0.5-0.1-0.9-0.3-1.2c-0.2-0.3-0.5-0.4-0.7-0.4c-0.3,0-0.5,0.1-0.7,0.4c-0.2,0.2-0.3,0.6-0.3,0.9v1.2h-4.6v-0.6
		c0-1.9,0.5-3.3,1.4-4.2c0.9-0.8,2.4-1.2,4.5-1.2c1.6,0,3,0.4,4,1.3s1.5,2.1,1.5,3.6v15.1h-4.7v-2.4c-0.2,0.8-0.6,1.4-1.1,1.9
		s-1.1,0.7-1.8,0.7C184.2,40,183.1,39.5,182.5,38.5z M188.3,35.8c0.2-0.3,0.2-0.7,0.2-1.1v-5.5c-0.7,0.3-1.2,0.6-1.6,1
		c-0.3,0.4-0.5,1-0.5,1.7v2.5c0,1.2,0.4,1.8,1.1,1.8C187.9,36.3,188.2,36.1,188.3,35.8z"/>
	<path class="st1" d="M195.2,19.9h4.8V21c0.7-0.8,1.6-1.3,2.8-1.3c1.5,0,2.6,0.5,3.2,1.5s0.9,2.5,0.9,4.3v7.3c0,1.6-0.1,2.8-0.3,3.8
		c-0.2,1-0.6,1.8-1.2,2.4c-0.6,0.6-1.5,0.9-2.8,0.9c-1.2,0-2.1-0.3-2.7-1v4.7h-4.8V19.9H195.2z M202,35.8c0.1-0.4,0.2-1,0.2-1.7
		v-8.4c0-0.7-0.1-1.2-0.2-1.6s-0.4-0.5-0.9-0.5c-0.7,0-1.1,0.7-1.1,2.1v8.7c0,0.7,0.1,1.2,0.2,1.6c0.2,0.4,0.5,0.6,0.9,0.6
		C201.5,36.3,201.8,36.1,202,35.8z"/>
	<path class="st1" d="M208.3,40h2.3c0.3,0,0.5-0.1,0.5-0.4c0-0.1,0-0.2,0-0.3L208,19.9h4.5l0.9,9.7l0.4,4.9l0.5-4.9l1.1-9.7h4.5
		l-3.7,20.8c-0.1,0.8-0.4,1.3-0.8,1.7c-0.4,0.4-1,0.6-1.8,0.6h-5.3L208.3,40L208.3,40z"/>
</g>
</svg>
